<?xml version="1.0" ?><!DOCTYPE svg  PUBLIC '-//W3C//DTD SVG 1.1//EN'  'http://www.w3.org/Graphics/SVG/1.1/DTD/svg11.dtd'><svg enable-background="new 0 0 32 32" version="1.1" viewBox="0 0 32 32" xml:space="preserve" xmlns="http://www.w3.org/2000/svg" xmlns:xlink="http://www.w3.org/1999/xlink"><g id="Desktop25"/><g id="Desktop24"/><g id="Desktop23"/><g id="Desktop22"/><g id="Desktop21"/><g id="Desktop20"/><g id="Desktop19"/><g id="Desktop18"/><g id="Desktop17"/><g id="Desktop16"/><g id="Desktop15"/><g id="Desktop14"/><g id="Desktop13"/><g id="Desktop12"/><g id="Desktop11"/><g id="Desktop10"/><g id="Desktop09"/><g id="Desktop08"/><g id="Desktop07"/><g id="Desktop06"/><g id="Desktop05"/><g id="Desktop04"/><g id="Desktop03"/><g id="Desktop02"><g><path d="M24,28c0,0.55-0.45,1-1,1H9c-0.55,0-1-0.45-1-1c0-2.76,2.24-5,5-5h6C21.76,23,24,25.24,24,28z" fill="#FFC10A"/></g><g><path d="M31,6v16c0,1.65-1.35,3-3,3H4c-1.65,0-3-1.35-3-3V6c0-1.65,1.35-3,3-3h24C29.65,3,31,4.35,31,6z" fill="#2197F3"/></g><g><path d="M19,22h-6c-0.5522,0-1-0.4478-1-1s0.4478-1,1-1h6c0.5522,0,1,0.4478,1,1S19.5522,22,19,22z" fill="#3F51B5"/></g></g><g id="Desktop01"/></svg>