<?xml version="1.0" ?><svg id="Layer_1" style="enable-background:new 0 0 512 512;" version="1.1" viewBox="0 0 512 512" xml:space="preserve" xmlns="http://www.w3.org/2000/svg" xmlns:xlink="http://www.w3.org/1999/xlink"><style type="text/css">
	.st0{fill:#030303;}
</style><g><g><path class="st0" d="M249.13,115.43c-37.44,0-73.55-5.24-99.07-14.37c-4.26-1.52-8.33-3.2-12.1-4.99l-0.18-0.09    c-0.05-0.03-0.11-0.05-0.16-0.08c-16.21-7.83-24.78-17.26-24.78-27.28c0-26.25,59.87-46.81,136.29-46.81    s136.29,20.56,136.29,46.81c0,10.09-8.68,19.58-25.11,27.45l-0.28,0.11c-3.73,1.79-7.71,3.43-11.83,4.88    C322.68,110.19,286.57,115.43,249.13,115.43z M140.21,91.54c3.59,1.7,7.48,3.31,11.55,4.76c25,8.95,60.49,14.08,97.37,14.08    c36.88,0,72.37-5.13,97.37-14.08c3.97-1.4,7.79-2.98,11.37-4.69l0.28-0.11c0.01-0.01,0.03-0.01,0.04-0.02    c14.51-6.96,22.18-14.86,22.18-22.86c0-22.64-60.1-41.76-131.24-41.76S117.89,45.98,117.89,68.62c0,10.06,11.96,17.93,21.99,22.77    l0.16,0.08C140.1,91.49,140.16,91.51,140.21,91.54z"/></g><g><path class="st0" d="M358.61,94.7l1.16-3.43c0.29,0.1,0.59,0.25,0.85,0.42L358.61,94.7z"/></g><g><polygon class="st0" points="139.76,96.21 139.2,94.51 137.41,91.77 138.23,91.39 139.2,94.25 140.17,96 139.4,94.82     139.86,96.18   "/></g><g><path class="st0" d="M249.13,156.12c-37.12,0-71.75-4.91-97.51-13.83c-5.02-1.73-9.71-3.64-13.93-5.67    c-1.26-0.61-1.79-2.11-1.18-3.37c0.61-1.26,2.12-1.78,3.37-1.18c4.04,1.94,8.55,3.78,13.39,5.45    c25.25,8.74,59.29,13.55,95.86,13.55c45.46,0,90.98-11.86,95.86-13.55c4.62-1.59,8.95-3.35,12.89-5.22    c1.25-0.6,2.76-0.07,3.37,1.19c0.6,1.26,0.07,2.77-1.19,3.37c-4.1,1.96-8.62,3.79-13.41,5.44    C338.19,145.22,292.31,156.12,249.13,156.12z"/></g><g><path class="st0" d="M249.13,218.41c-38.6,0-75.46-5.51-101.13-15.13c-3.67-1.38-7.13-2.85-10.3-4.37    c-1.26-0.6-1.79-2.11-1.18-3.37c0.6-1.26,2.11-1.79,3.37-1.18c3.03,1.46,6.36,2.87,9.89,4.19c25.12,9.41,61.34,14.81,99.36,14.81    s74.24-5.4,99.36-14.81c3.32-1.24,6.48-2.57,9.38-3.96c1.25-0.6,2.76-0.07,3.37,1.19c0.6,1.26,0.07,2.77-1.19,3.37    c-3.04,1.45-6.33,2.85-9.79,4.14C324.6,212.89,287.73,218.41,249.13,218.41z"/></g><g><path class="st0" d="M249.13,277.05c-38.6,0-75.46-5.51-101.13-15.13c-3.67-1.38-7.13-2.85-10.3-4.37    c-1.26-0.6-1.79-2.11-1.18-3.37c0.6-1.26,2.11-1.79,3.37-1.18c3.03,1.46,6.36,2.87,9.89,4.19C174.9,266.6,211.11,272,249.13,272    s74.24-5.4,99.36-14.81c3.31-1.23,6.46-2.57,9.38-3.96c1.26-0.6,2.76-0.07,3.37,1.19c0.6,1.26,0.07,2.77-1.19,3.37    c-3.05,1.46-6.35,2.85-9.79,4.14C324.6,271.53,287.73,277.05,249.13,277.05z"/></g><g><path class="st0" d="M249.13,335.69c-38.41,0-75.07-5.44-100.68-14.94h-0.01l-0.46-0.17c-3.94-1.5-7.31-2.93-10.3-4.4    c-1.25-0.61-1.78-2.12-1.16-3.38c0.61-1.26,2.12-1.78,3.38-1.16c2.77,1.35,5.9,2.69,9.55,4.09l0.35,0.12    c25.08,9.39,61.29,14.78,99.34,14.78c38.05,0,74.26-5.39,99.34-14.78l0.44-0.16c3.39-1.3,6.32-2.55,8.95-3.82    c1.26-0.61,2.76-0.08,3.37,1.18c0.61,1.26,0.08,2.77-1.18,3.37c-2.88,1.39-6.08,2.75-9.78,4.16l-0.47,0.17    C324.2,330.24,287.55,335.69,249.13,335.69z"/></g><g><path class="st0" d="M249.13,398.62c-44.42,0-86.08-7.29-111.44-19.5c-1.26-0.6-1.79-2.11-1.18-3.37c0.6-1.26,2.12-1.79,3.37-1.18    c24.71,11.9,65.55,19,109.25,19c43.41,0,84.06-7.02,108.75-18.77c1.26-0.6,2.76-0.07,3.36,1.19c0.6,1.26,0.07,2.77-1.19,3.36    C334.72,391.42,293.26,398.62,249.13,398.62z"/></g><g><path class="st0" d="M249.13,175.56c-37.44,0-73.55-5.24-99.07-14.37c-4.05-1.46-7.73-2.96-10.96-4.47    c-0.45-0.19-0.93-0.41-1.44-0.67c-16.22-7.82-24.82-17.26-24.82-27.3h5.05c0,10.06,11.96,17.93,21.99,22.77    c0.45,0.22,0.84,0.41,1.27,0.59c3.17,1.48,6.71,2.93,10.61,4.33c24.99,8.94,60.48,14.08,97.37,14.08    c36.88,0,72.37-5.13,97.37-14.08c3.89-1.4,7.43-2.85,10.52-4.29c0.37-0.16,0.62-0.27,0.86-0.38c14.71-7,22.49-14.95,22.49-23.01    h5.05c0,10.15-8.77,19.68-25.37,27.58c-0.37,0.17-0.66,0.3-0.99,0.44c-3.12,1.47-6.81,2.97-10.85,4.43    C322.68,170.32,286.57,175.56,249.13,175.56z"/></g><g><path class="st0" d="M249.13,235.68c-37.44,0-73.55-5.24-99.07-14.37c-4.44-1.57-8.55-3.27-12.23-5.03l-0.43-0.21    c-16.04-7.77-24.56-17.19-24.56-27.2h5.05c0,10.03,11.85,17.88,21.79,22.69c3.75,1.81,7.74,3.46,12.07,4.99    c25,8.95,60.5,14.08,97.38,14.08c36.88,0,72.37-5.13,97.37-14.08c4.04-1.43,7.86-2.99,11.38-4.65c0.01-0.01,0.18-0.1,0.36-0.18    l0.34-0.17c9.94-4.82,21.79-12.66,21.79-22.69h5.05c0,10.01-8.52,19.43-24.64,27.24c-0.04,0.02-0.21,0.11-0.38,0.19l-0.36,0.18    c-3.67,1.73-7.66,3.36-11.84,4.84C322.68,230.44,286.57,235.68,249.13,235.68z"/></g><g><path class="st0" d="M249.13,295.81c-37.44,0-73.55-5.24-99.07-14.37c-4.49-1.59-8.66-3.31-12.37-5.1    c-0.61-0.29-1.2-0.59-1.76-0.88c-15.09-7.63-23.09-16.79-23.09-26.46h5.05c0,9.65,11.06,17.27,20.35,21.97    c0.54,0.28,1.08,0.55,1.64,0.82c3.55,1.71,7.54,3.36,11.87,4.89c25,8.95,60.5,14.08,97.38,14.08c36.88,0,72.37-5.13,97.37-14.08    c4.04-1.43,7.86-2.99,11.38-4.65c0.69-0.33,1.4-0.68,2.09-1.04c9.34-4.72,20.4-12.34,20.4-22h5.05c0,9.67-7.99,18.83-23.12,26.47    c-0.7,0.37-1.47,0.75-2.25,1.12c-3.69,1.74-7.68,3.37-11.86,4.85C322.68,290.57,286.57,295.81,249.13,295.81z"/></g><g><path class="st0" d="M249.13,355.94c-37.44,0-73.55-5.24-99.07-14.37c-4.49-1.59-8.66-3.31-12.37-5.1    c-1.1-0.53-2.19-1.08-3.23-1.64c-14.14-7.47-21.62-16.36-21.62-25.7h5.05c0,9.29,10.3,16.68,18.95,21.24    c0.98,0.53,1.99,1.05,3.03,1.54c3.56,1.72,7.55,3.36,11.88,4.9c25,8.95,60.5,14.08,97.38,14.08c36.88,0,72.37-5.13,97.37-14.08    c4.04-1.43,7.86-2.99,11.38-4.65c1.23-0.6,2.38-1.17,3.51-1.78c8.67-4.58,18.98-11.97,18.98-21.26h5.05    c0,9.34-7.48,18.23-21.64,25.71c-1.16,0.63-2.38,1.23-3.64,1.85c-3.77,1.78-7.76,3.4-11.94,4.88    C322.68,350.7,286.57,355.94,249.13,355.94z"/></g><g><path class="st0" d="M249.13,416.06c-44.46,0-86.11-7.28-111.44-19.47c-16.26-7.83-24.85-17.29-24.85-27.34h5.05    c0,7.98,7.6,15.86,21.99,22.79c24.67,11.88,65.51,18.97,109.25,18.97c43.39,0,84.04-7.01,108.75-18.75    c14.51-6.87,22.49-15.05,22.49-23.02h5.05c0,10.18-8.78,19.71-25.38,27.58C334.7,408.87,293.23,416.06,249.13,416.06z"/></g><g><rect class="st0" height="300.63" width="5.05" x="112.84" y="68.62"/></g><g><rect class="st0" height="300.63" width="5.05" x="380.37" y="68.62"/></g><g><path class="st0" d="M249.98,489.24c-9.28,0-16.82-7.55-16.82-16.83c0-9.28,7.55-16.83,16.82-16.83s16.82,7.55,16.82,16.83    C266.8,481.69,259.25,489.24,249.98,489.24z M249.98,460.63c-6.49,0-11.77,5.28-11.77,11.78c0,6.49,5.28,11.78,11.77,11.78    c6.49,0,11.77-5.28,11.77-11.78C261.75,465.91,256.47,460.63,249.98,460.63z"/></g><g><path class="st0" d="M131.89,493.85c-1.2,0-2.26-0.85-2.48-2.07c-0.25-1.37,0.66-2.69,2.03-2.94l103.78-18.91    c1.39-0.25,2.69,0.66,2.94,2.03c0.25,1.37-0.66,2.69-2.03,2.94l-103.78,18.91C132.2,493.83,132.04,493.85,131.89,493.85z"/></g><g><path class="st0" d="M368.04,494.15c-0.15,0-0.3-0.01-0.45-0.04L263.8,475.2c-1.37-0.25-2.28-1.56-2.03-2.94s1.57-2.27,2.94-2.03    l103.78,18.92c1.37,0.25,2.28,1.56,2.03,2.94C370.3,493.3,369.24,494.15,368.04,494.15z"/></g><g><path class="st0" d="M249.98,460.63c-1.39,0-2.53-1.13-2.53-2.52v-44.57c0-1.39,1.13-2.52,2.53-2.52s2.52,1.13,2.52,2.52v44.57    C252.5,459.5,251.37,460.63,249.98,460.63z"/></g><g><path class="st0" d="M443.09,165.74c-12,0-21.77-9.77-21.77-21.77c0-12,9.77-21.77,21.77-21.77c12,0,21.77,9.77,21.77,21.77    C464.86,155.97,455.1,165.74,443.09,165.74z M443.09,127.25c-9.22,0-16.72,7.5-16.72,16.72s7.5,16.72,16.72,16.72    s16.72-7.5,16.72-16.72S452.31,127.25,443.09,127.25z"/></g><g><path class="st0" d="M97.91,457.6c-12,0-21.77-9.77-21.77-21.77c0-12,9.77-21.77,21.77-21.77s21.77,9.77,21.77,21.77    C119.68,447.83,109.91,457.6,97.91,457.6z M97.91,419.1c-9.22,0-16.72,7.5-16.72,16.72c0,9.22,7.5,16.72,16.72,16.72    s16.72-7.5,16.72-16.72C114.63,426.6,107.13,419.1,97.91,419.1z"/></g><g><path class="st0" d="M470.2,58.69c-0.65,0-1.29-0.25-1.78-0.74c-0.99-0.99-0.99-2.58,0-3.57l11.3-11.32    c0.47-0.47,1.12-0.74,1.79-0.74c1.39,0,2.53,1.13,2.53,2.52c0,0.78-0.35,1.47-0.9,1.93l-11.15,11.17    C471.5,58.45,470.85,58.69,470.2,58.69z"/></g><g><path class="st0" d="M494.66,34.22c-0.65,0-1.29-0.25-1.79-0.74c-0.99-0.99-0.99-2.58,0-3.57l11.32-11.32    c0.99-0.99,2.58-0.99,3.57,0c0.99,0.99,0.99,2.58,0,3.57l-11.32,11.32C495.95,33.97,495.3,34.22,494.66,34.22z"/></g><g><path class="st0" d="M505.98,58.69c-0.65,0-1.29-0.25-1.79-0.74l-11.32-11.32c-0.99-0.99-0.99-2.58,0-3.57s2.58-0.99,3.57,0    l11.32,11.32c0.99,0.99,0.99,2.58,0,3.57C507.27,58.45,506.62,58.69,505.98,58.69z"/></g><g><path class="st0" d="M481.52,34.22h-0.02c-0.67,0-1.31-0.27-1.79-0.74l-11.3-11.32c-0.99-0.99-0.98-2.59,0-3.57    c0.99-0.98,2.59-0.99,3.57,0l11.22,11.24c0.51,0.46,0.83,1.13,0.83,1.87C484.04,33.09,482.91,34.22,481.52,34.22z"/></g><g><path class="st0" d="M33.27,347.18c-0.65,0-1.29-0.25-1.78-0.74c-0.99-0.99-0.99-2.58,0-3.57l11.3-11.32    c0.47-0.47,1.12-0.74,1.79-0.74c1.39,0,2.53,1.13,2.53,2.53c0,0.78-0.35,1.47-0.9,1.93l-11.15,11.17    C34.56,346.93,33.92,347.18,33.27,347.18z"/></g><g><path class="st0" d="M57.73,322.7c-0.65,0-1.29-0.25-1.79-0.74c-0.99-0.99-0.99-2.58,0-3.57l11.32-11.32    c0.99-0.99,2.58-0.99,3.57,0c0.99,0.99,0.99,2.58,0,3.57l-11.32,11.32C59.02,322.46,58.37,322.7,57.73,322.7z"/></g><g><path class="st0" d="M69.04,347.18c-0.65,0-1.29-0.25-1.79-0.74l-11.32-11.32c-0.99-0.99-0.99-2.58,0-3.57s2.58-0.99,3.57,0    l11.32,11.32c0.99,0.99,0.99,2.58,0,3.57C70.34,346.93,69.69,347.18,69.04,347.18z"/></g><g><path class="st0" d="M44.59,322.7h-0.02c-0.67,0-1.31-0.27-1.79-0.74l-11.3-11.32c-0.99-0.99-0.98-2.59,0-3.57    c0.99-0.99,2.59-0.98,3.57,0l11.22,11.24c0.51,0.46,0.83,1.13,0.83,1.87C47.1,321.57,45.98,322.7,44.59,322.7z"/></g><g><path class="st0" d="M88.29,115.66H69.04c-1.39,0-2.53-1.13-2.53-2.53V93.89c0-1.39,1.13-2.53,2.53-2.53h19.24    c1.39,0,2.52,1.13,2.52,2.53v19.25C90.81,114.53,89.68,115.66,88.29,115.66z M71.57,110.61h14.19v-14.2H71.57V110.61z"/></g><g><path class="st0" d="M90.85,58.69H41.49c-1.39,0-2.53-1.13-2.53-2.53c0-1.39,1.13-2.52,2.53-2.52h49.36    c1.39,0,2.53,1.13,2.53,2.52C93.38,57.56,92.25,58.69,90.85,58.69z"/></g><g><path class="st0" d="M27.45,58.69H6.03c-1.39,0-2.53-1.13-2.53-2.53c0-1.39,1.13-2.52,2.53-2.52h21.42c1.39,0,2.52,1.13,2.52,2.52    C29.97,57.56,28.84,58.69,27.45,58.69z"/></g><g><path class="st0" d="M100.14,39.28H50.78c-1.39,0-2.53-1.13-2.53-2.52s1.13-2.53,2.53-2.53h49.36c1.39,0,2.53,1.13,2.53,2.53    S101.53,39.28,100.14,39.28z"/></g><g><path class="st0" d="M36.74,39.28H15.31c-1.39,0-2.53-1.13-2.53-2.52s1.13-2.53,2.53-2.53h21.42c1.39,0,2.52,1.13,2.52,2.53    S38.13,39.28,36.74,39.28z"/></g><g><path class="st0" d="M466.26,438.35H416.9c-1.39,0-2.52-1.13-2.52-2.52c0-1.39,1.13-2.53,2.52-2.53h49.36    c1.39,0,2.52,1.13,2.52,2.53C468.79,437.22,467.65,438.35,466.26,438.35z"/></g><g><path class="st0" d="M402.86,438.35h-21.42c-1.39,0-2.52-1.13-2.52-2.52c0-1.39,1.13-2.53,2.52-2.53h21.42    c1.39,0,2.52,1.13,2.52,2.53C405.38,437.22,404.25,438.35,402.86,438.35z"/></g><g><path class="st0" d="M476.97,460.63h-49.36c-1.39,0-2.52-1.13-2.52-2.52c0-1.39,1.13-2.53,2.52-2.53h49.36    c1.39,0,2.52,1.13,2.52,2.53C479.5,459.5,478.37,460.63,476.97,460.63z"/></g><g><path class="st0" d="M413.57,460.63h-21.42c-1.39,0-2.52-1.13-2.52-2.52c0-1.39,1.13-2.53,2.52-2.53h21.42    c1.39,0,2.52,1.13,2.52,2.53C416.09,459.5,414.96,460.63,413.57,460.63z"/></g><g><path class="st0" d="M494.66,330.73c-1.39,0-2.52-1.13-2.52-2.52v-49.37c0-1.39,1.13-2.52,2.52-2.52c1.39,0,2.52,1.13,2.52,2.52    v49.37C497.18,329.6,496.05,330.73,494.66,330.73z"/></g><g><path class="st0" d="M494.66,366.2c-1.39,0-2.52-1.13-2.52-2.52v-21.43c0-1.39,1.13-2.52,2.52-2.52c1.39,0,2.52,1.13,2.52,2.52    v21.43C497.18,365.07,496.05,366.2,494.66,366.2z"/></g><g><path class="st0" d="M50.78,193.96c-1.39,0-2.53-1.13-2.53-2.53v-49.37c0-1.39,1.13-2.52,2.53-2.52s2.52,1.13,2.52,2.52v49.37    C53.31,192.83,52.18,193.96,50.78,193.96z"/></g><g><path class="st0" d="M50.78,229.43c-1.39,0-2.53-1.13-2.53-2.52v-21.43c0-1.39,1.13-2.53,2.53-2.53s2.52,1.13,2.52,2.53v21.43    C53.31,228.3,52.18,229.43,50.78,229.43z"/></g></g></svg>